# xmcd
#
# Track frame offsets: 
#        150
#        16442
#        34989
#        49831
#        65418
#        83929
#        101516
#        122594
#        139066
#
# Disc length: 2151 seconds
#
# Revision: 2
# Processed by: cddbd v1.5.2PL0 Copyright (c) Steve Scherf et al.
# Submitted via: ExactAudioCopy v0.99pb4
#
DISCID=77086509
DTITLE=Gang of Four - Songs of the Free
DYEAR=1982
DGENRE=Rock
TTITLE0=Call Me Up
TTITLE1=I Love A Man In A Uniform
TTITLE2=Muscle For Brains
TTITLE3=It Is Not Enough
TTITLE4=Life, It's A Shame
TTITLE5=I Will Be A Good Boy
TTITLE6=The History Of The World
TTITLE7=We Live As We Dream, All Alone
TTITLE8=Of The Instant
EXTD=
EXTT0=
EXTT1=
EXTT2=
EXTT3=
EXTT4=
EXTT5=
EXTT6=
EXTT7=
EXTT8=
PLAYORDER=
